# xmcd
#
# Track frame offsets:
#	150
#	16530
#	31806
#	51934
#	66347
#	82383
#	96785
#	116614
#	133631
#	149488
#	165394
#	179854
#	192595
#	205622
#
# Disc length: 2925 seconds
# Revision: 1
# Processed by: cddbd v1.5.2PL0 Copyright (c) Steve Scherf et al.
# Submitted via: dBpowerAMP V12.0
#
DISCID=ca0b6b0e
DTITLE=JaySean,London,England,UK - Neon
DYEAR=2013
DGENRE=Blues
TTITLE0=Neon
TTITLE1=Luckiest Man
TTITLE2=Words
TTITLE3=Where Are You
TTITLE4=Guns and Roses
TTITLE5=Mars
TTITLE6=Miss Popular
TTITLE7=Close To You
TTITLE8=Deep End
TTITLE9=Worth It All
TTITLE10=Passenger Side
TTITLE11=All on Your Body
TTITLE12=Breakadawn
TTITLE13=Sucka For You
EXTD=
EXTT0=
EXTT1=
EXTT2=
EXTT3=
EXTT4=
EXTT5=
EXTT6=
EXTT7=
EXTT8=
EXTT9=
EXTT10=
EXTT11=
EXTT12=
EXTT13=
PLAYORDER=
